<svg width="29" height="42" viewBox="0 0 29 42" fill="none" xmlns="http://www.w3.org/2000/svg">
<g clip-path="url(#clip0_54_89)">
<path d="M24.9219 7.23086C24.4257 7.40686 24.1176 7.49829 23.5965 7.62857C22.6404 7.86629 21.9743 8.01714 21.5914 8.08343C20.5039 8.27314 18.4286 8.53143 17.6266 8.57714C17.4091 8.59086 16.9809 8.62057 16.675 8.64571C15.4924 8.74171 15.0596 8.76229 13.8996 8.78286C12.6943 8.80571 12.3681 8.824 12.0531 8.888C11.412 9.02286 11.2647 9.176 10.7572 10.2229C10.3856 10.9886 10.2927 11.176 10.039 11.6491C9.80111 12.0949 9.79431 12.104 8.94697 13.0571C8.48478 13.576 8.20611 13.9051 7.67142 14.5657C6.67228 15.7931 6.21689 16.4949 6.13986 16.92C6.10814 17.0891 6.124 17.4937 6.17384 17.8869C6.27353 18.6366 6.63376 20.3211 6.78556 20.7303C6.86939 20.9566 7.13447 21.3886 7.54681 21.9691C7.74392 22.2503 7.93876 22.52 7.97728 22.568L8.04525 22.6549L7.73259 22.8126C6.14665 23.6149 0.4622 26.5429 0.367043 26.6046C0.12009 26.7714 -0.0158472 27.0251 0.00680909 27.2766C0.0204028 27.4251 0.00227788 27.3886 1.74907 30.8743C3.50493 34.376 3.62954 34.6183 3.7179 34.7143C3.87423 34.8857 4.16423 34.9977 4.4497 35C4.55165 35 5.02517 34.7623 10.5148 31.9806C16.0542 29.1737 16.4779 28.9543 16.5617 28.8583C16.7294 28.664 16.7634 28.3989 16.6614 28.0697C16.6229 27.9463 16.1675 27.0069 15.3587 25.3794C14.6745 24.0034 14.1149 22.8697 14.1149 22.8629C14.1149 22.8537 14.1896 22.8331 14.278 22.8171C14.5136 22.776 14.6609 22.7189 14.9305 22.568C15.2295 22.4011 16.2513 21.7634 17.2641 21.1097C17.6152 20.8834 17.792 20.7783 18.193 20.5543C18.3924 20.4423 18.7413 20.216 18.8704 20.1177C18.9202 20.0789 18.9746 20.0743 19.4935 20.0743C19.8197 20.0743 20.0984 20.0629 20.1482 20.0491C20.2479 20.0217 20.3906 19.9029 20.3906 19.848C20.3906 19.8274 20.4269 19.7543 20.4699 19.6857C20.5606 19.5463 20.6036 19.4114 20.59 19.3177C20.581 19.256 20.581 19.256 20.8868 19.176C21.2901 19.0709 21.5642 18.968 22.0332 18.7394C22.4931 18.5154 22.8126 18.3326 23.2113 18.0674C23.5965 17.8114 23.9907 17.416 24.7406 16.5314C25.0465 16.1726 25.3433 15.832 25.4045 15.7726C25.5925 15.5851 25.912 15.3589 27.4752 14.3143L28.9977 13.2971V10.1931L29 7.09143H27.2827C26.2269 7.09143 25.5381 7.10057 25.4906 7.11429C25.4475 7.12571 25.4067 7.13257 25.4022 7.128C25.3977 7.12114 25.4339 7.10514 25.486 7.08914C25.5381 7.07314 25.5789 7.048 25.5789 7.02971C25.5789 7.01371 25.5767 7 25.5744 7.00229C25.5699 7.00229 25.2776 7.10514 24.9219 7.23086ZM23.166 7.81371C23.0437 7.87771 22.756 7.944 22.1918 8.04C21.9698 8.07886 22.1646 8.024 22.6313 7.91657C22.91 7.85257 23.1456 7.79543 23.1502 7.78857C23.157 7.78171 23.1774 7.77714 23.1977 7.77714C23.2181 7.77714 23.2045 7.79314 23.166 7.81371ZM11.7541 18.2183C11.8583 18.5291 12.0735 18.6869 12.7668 18.9657C12.9163 19.0251 13.0432 19.08 13.05 19.0846C13.0545 19.0891 13.0455 19.1029 13.0274 19.1143C12.9549 19.16 12.4859 19.3406 12.3137 19.3886C12.214 19.416 12.0282 19.4869 11.9013 19.5486L11.6725 19.6583L11.6159 19.5074C11.5842 19.4229 11.5094 19.24 11.446 19.1029C11.3848 18.9634 11.2443 18.6206 11.1356 18.3371C10.9452 17.8389 10.9407 17.8229 10.9679 17.736C10.9906 17.6651 10.9906 17.6217 10.9702 17.5189C10.943 17.3886 10.943 17.3886 11.0042 17.3429C11.1265 17.256 11.2964 17.0823 11.4188 16.9177C11.4867 16.8286 11.5796 16.712 11.6227 16.6617L11.702 16.5703L11.7156 17.3566C11.7224 17.8526 11.736 18.1703 11.7541 18.2183ZM11.2375 17.064C11.2375 17.0686 11.1945 17.112 11.1424 17.16L11.0449 17.2514L11.1356 17.1531C11.2171 17.064 11.2375 17.0457 11.2375 17.064ZM11.7994 18.0171C11.7971 18.1611 11.7971 18.1634 11.779 18.0629C11.7699 18.0057 11.7631 17.8366 11.7631 17.6857L11.7654 17.4114L11.7813 17.64C11.7903 17.7657 11.7994 17.9349 11.7994 18.0171ZM10.9249 17.704C10.9045 17.7451 10.8999 17.7291 10.9022 17.6171C10.9022 17.4823 10.9022 17.48 10.9249 17.5669C10.9407 17.6286 10.9407 17.6697 10.9249 17.704ZM23.6849 17.6309C23.6622 17.6583 23.5602 17.7429 23.4606 17.8229C23.2725 17.9691 23.1524 18.0491 23.2884 17.9349C23.3314 17.8983 23.4447 17.8069 23.5376 17.7269C23.7211 17.576 23.7551 17.5531 23.6849 17.6309ZM12.5131 18.712C12.7442 18.8514 12.9322 18.9657 12.9299 18.9703C12.9186 18.9794 12.4315 18.7691 12.2593 18.6823C12.1234 18.6114 11.8719 18.4011 11.8719 18.3554C11.8719 18.3349 11.8719 18.3349 12.5131 18.712ZM21.2742 19.0114C21.17 19.0526 21.1292 19.0503 21.2176 19.0114C21.2561 18.9931 21.3014 18.9794 21.3195 18.9794C21.3377 18.9794 21.3173 18.9954 21.2742 19.0114ZM11.0902 23.4594C11.0042 23.4846 10.6099 23.5143 10.6281 23.4937C10.6439 23.4777 10.9452 23.4411 11.0789 23.4389H11.1582L11.0902 23.4594Z" fill="#0D6EFD"/>
</g>
<defs>
<clipPath id="clip0_54_89">
<rect width="29" height="28" fill="white" transform="translate(0 7)"/>
</clipPath>
</defs>
</svg>
