<svg width="29" height="42" viewBox="0 0 29 42" fill="none" xmlns="http://www.w3.org/2000/svg">
<path d="M20.0235 6.0575C20.0235 10.3584 20.0128 10.1585 20.2377 10.4976C20.3662 10.6939 20.6517 10.8973 20.9408 11.0008C21.1478 11.0793 21.1692 11.0793 25.0739 11.09L29 11.1007L24.5385 6.625C22.0865 4.16227 20.0663 2.14925 20.0521 2.14568C20.0342 2.14211 20.0235 3.90172 20.0235 6.0575Z" fill="#0D6EFD"/>
<path d="M1.74931 2.13854C1.11757 2.2242 0.539362 2.63109 0.243121 3.19502C-0.0209981 3.6947 0.000416951 2.03503 0.000416951 20.9481C0.000416951 39.8612 -0.0209981 38.2015 0.243121 38.7012C0.485825 39.1687 0.906988 39.5114 1.44593 39.6934L1.69578 39.7755H14.4913H27.2868L27.5366 39.6934C28.0756 39.5114 28.4967 39.1687 28.7394 38.7012C29.0035 38.2015 28.9821 39.3865 28.9821 25.2597V12.5284L25.0132 12.5177L21.0407 12.5034L20.7373 12.4213C19.8879 12.1893 19.2026 11.6611 18.8671 10.9758C18.5994 10.4297 18.6172 10.7617 18.6065 6.19669L18.5923 2.10285L10.2689 2.10642C5.68968 2.10999 1.85639 2.12426 1.74931 2.13854Z" fill="#0D6EFD"/>
</svg>
