<svg width="29" height="42" viewBox="0 0 29 42" fill="none" xmlns="http://www.w3.org/2000/svg">
<path d="M17.2955 7.17307C16.9516 7.35962 15.8804 8.42001 15.2122 9.23494L14.8584 9.66695L14.141 9.20549C11.6745 7.62472 10.0923 7.35962 9.5715 8.43965C9.26686 9.08767 9.55184 9.98114 10.4461 11.1594C10.8687 11.7092 12.7653 13.6336 13.5907 14.3307C13.7873 14.4976 13.9543 14.6645 13.9543 14.694C13.9543 14.7234 13.6988 14.7431 13.3844 14.7431C12.7751 14.7431 12.5786 14.8511 12.5786 15.1751C12.5786 15.5875 12.7358 15.6758 13.5613 15.7249L14.3474 15.774L13.6006 16.7068C11.4583 19.3676 9.6108 22.0087 8.79516 23.5895C8.54949 24.0706 8.28416 24.4633 8.20554 24.4633C8.13675 24.4633 7.84194 24.4142 7.56679 24.3455L7.06561 24.2277L7.12457 23.7368C7.16388 23.4619 7.21302 23.1575 7.23267 23.0593C7.32111 22.7647 6.78063 22.3327 6.03378 22.1167C4.6973 21.7142 0.461869 21.3607 0.147405 21.616C0.019654 21.724 0 22.4996 0 27.8016C0 32.8286 0.019654 33.889 0.137578 33.9774C0.226021 34.0559 0.933565 34.0854 2.46658 34.0658L4.66782 34.0363L4.88402 33.3588C5.01177 32.9857 5.12969 32.6617 5.14935 32.6421C5.169 32.6225 7.45869 33.3687 10.2299 34.3014L15.281 36L16.2637 35.9902C17.0498 35.9804 17.4134 35.9313 18.0817 35.7054C19.7031 35.1851 21.7078 34.3505 25.2849 32.7305C29.2255 30.9435 29.1862 30.973 28.8717 30.3151C28.7833 30.1482 28.5474 29.8144 28.3312 29.5689L27.948 29.1271L28.0463 28.3122C28.174 27.2223 28.0266 26.3878 27.4566 25.0426C26.6705 23.1771 24.4103 19.6621 22.1206 16.7264L21.3344 15.7249H22.1107C22.946 15.7249 23.1917 15.6071 23.1917 15.1947C23.1917 14.8511 22.9952 14.7431 22.3859 14.7431C22.0714 14.7431 21.8159 14.7234 21.8159 14.694C21.8159 14.6645 21.983 14.4976 22.1894 14.3307C22.3859 14.154 23.0738 13.506 23.7125 12.8776C25.8745 10.7764 26.6508 9.39204 26.1988 8.43965C25.6779 7.35962 24.0958 7.62472 21.6292 9.20549L20.9119 9.66695L20.5581 9.23494C19.8604 8.39056 18.8089 7.35962 18.4551 7.17307C18.0031 6.93743 17.7377 6.94725 17.2955 7.17307Z" fill="#0D6EFD"/>
</svg>
