<svg width="16" height="16" viewBox="0 0 16 16" fill="none" xmlns="http://www.w3.org/2000/svg">
<g clip-path="url(#clip0_49_34)">
<path d="M7.57889 1.42328C7.07358 1.45609 6.52889 1.55672 6.04327 1.70656C4.76796 2.1025 3.62061 2.89875 2.79593 3.96078C2.07952 4.885 1.62233 5.97656 1.47139 7.125C1.42655 7.47063 1.42108 7.56031 1.42108 8.00547C1.42108 8.46047 1.42874 8.57859 1.48233 8.95703C1.62233 9.94359 2.01499 10.9378 2.59139 11.7625C3.01796 12.3717 3.56264 12.9241 4.15546 13.3495C5.10374 14.0298 6.15046 14.4269 7.34374 14.5581C7.55921 14.5811 8.20124 14.5909 8.44405 14.5745C10.7201 14.4159 12.7217 13.1209 13.81 11.103C14.4826 9.85719 14.7309 8.36859 14.5012 6.95109C14.2201 5.20984 13.2609 3.66438 11.8216 2.63406C10.8394 1.93078 9.68546 1.51625 8.46483 1.42656C8.32702 1.41672 7.71671 1.41453 7.57889 1.42328ZM8.35546 2.29063C10.3964 2.41859 12.1989 3.61406 13.1198 5.45375C13.7903 6.79141 13.9008 8.37406 13.425 9.80469C13.1942 10.4981 12.8508 11.1117 12.3673 11.6914C12.223 11.8653 11.9014 12.1902 11.7242 12.3411C10.3056 13.553 8.42764 13.997 6.61421 13.5508C5.13108 13.1855 3.82733 12.2055 3.05624 10.8766C2.62968 10.1394 2.38139 9.35406 2.30046 8.48125C2.28296 8.29094 2.28296 7.70906 2.30046 7.51875C2.38139 6.64484 2.62858 5.86063 3.05624 5.12344C3.82624 3.79563 5.1278 2.81672 6.61093 2.45031C7.18514 2.30813 7.77358 2.25453 8.35546 2.29063Z" fill="white"/>
<path d="M7.88844 2.39781L7.78125 2.40109V2.75V3.1H8H8.21875V2.75V2.4H8.12141C8.06781 2.4 8.0175 2.3989 8.00875 2.39672C8.00109 2.39562 7.94641 2.39562 7.88844 2.39781Z" fill="white"/>
<path d="M5.23828 3.12516C5.05016 3.23235 4.99219 3.26844 4.99219 3.27828C4.99219 3.2936 5.33234 3.87656 5.34109 3.87656C5.34547 3.87656 5.40344 3.84375 5.46906 3.80438C5.53469 3.765 5.61672 3.71688 5.65172 3.69828C5.68562 3.67969 5.71406 3.66 5.71406 3.65563C5.71406 3.64578 5.38703 3.08797 5.37062 3.06938C5.36078 3.05844 5.33234 3.07047 5.23828 3.12516Z" fill="white"/>
<path d="M10.6108 3.09672C10.5441 3.20391 10.2859 3.64688 10.2859 3.65453C10.2859 3.66 10.3286 3.68844 10.3822 3.71797C10.4347 3.74641 10.5156 3.79453 10.5627 3.82406C10.6097 3.8525 10.6524 3.87656 10.6567 3.87656C10.6655 3.87656 11.0078 3.2925 11.0078 3.27719C11.0078 3.26953 10.8295 3.16125 10.6994 3.08906L10.637 3.05516L10.6108 3.09672Z" fill="white"/>
<path d="M3.18967 5.12562C3.09452 5.28422 3.03108 5.40891 3.04092 5.41875C3.05514 5.43187 3.62498 5.75781 3.63373 5.75781C3.64139 5.75781 3.85686 5.38375 3.85248 5.38047C3.8503 5.37937 3.72889 5.31047 3.58123 5.22734C3.43358 5.14531 3.29795 5.06766 3.27827 5.05672L3.24436 5.03484L3.18967 5.12562Z" fill="white"/>
<path d="M12.457 5.20547C12.2951 5.29844 12.1573 5.37609 12.1519 5.37828C12.1464 5.38047 12.1661 5.42313 12.1967 5.47453C12.2273 5.52484 12.2754 5.60906 12.305 5.66156C12.3334 5.71516 12.3608 5.75781 12.364 5.75781C12.3728 5.75781 12.9448 5.43078 12.959 5.41875C12.9645 5.41328 12.9481 5.37172 12.9219 5.32359C12.8759 5.24047 12.7567 5.03594 12.7534 5.03594C12.7534 5.03703 12.62 5.1125 12.457 5.20547Z" fill="white"/>
<path d="M7.85889 7.47063C7.66311 7.52313 7.50233 7.69594 7.46186 7.89719C7.45421 7.93219 7.44874 7.96282 7.44764 7.96391C7.44655 7.9661 6.94452 8.15203 6.33093 8.37844C5.21749 8.7886 3.19952 9.53453 3.16343 9.54766C3.15249 9.55203 3.14374 9.56516 3.14374 9.57719C3.14374 9.59578 3.14811 9.59797 3.17436 9.59141C3.20608 9.58375 4.21561 9.29938 5.50077 8.93516C5.94046 8.81047 6.58468 8.62891 6.93249 8.53047L7.56577 8.3511L7.62155 8.40032C7.69046 8.46047 7.80421 8.51953 7.88733 8.53703C7.97264 8.55453 8.11046 8.5436 8.18811 8.51407C8.32155 8.46375 8.42655 8.37078 8.49218 8.24282C8.51296 8.20344 8.52061 8.19688 8.55233 8.19688C8.57202 8.19688 8.71311 8.18922 8.86514 8.18047C9.01827 8.17172 9.66686 8.13453 10.3078 8.09844C11.7176 8.01969 11.6422 8.02516 11.6422 8C11.6422 7.97485 11.7176 7.98032 10.3078 7.90157C9.66686 7.86547 9.01827 7.82828 8.86514 7.81953C8.71311 7.81078 8.57202 7.80313 8.55124 7.80313C8.51733 7.80313 8.51186 7.79766 8.48561 7.74625C8.44624 7.6686 8.34124 7.56141 8.26358 7.51985C8.14108 7.45532 7.98686 7.43563 7.85889 7.47063Z" fill="white"/>
<path d="M2.39996 8V8.21875H2.74996H3.09996V8V7.78125H2.74996H2.39996V8Z" fill="white"/>
<path d="M12.9 8V8.21875H13.25H13.6V8V7.78125H13.25H12.9V8Z" fill="white"/>
<path d="M3.33293 10.4095C3.17543 10.5014 3.04308 10.5791 3.0398 10.5834C3.03105 10.5922 3.10105 10.7267 3.18965 10.8744L3.24433 10.9652L3.27824 10.9433C3.29793 10.9323 3.43355 10.8547 3.58121 10.7727C3.72886 10.6895 3.85027 10.6206 3.85246 10.6195C3.85902 10.6141 3.64027 10.2433 3.63043 10.2433C3.62496 10.2433 3.49043 10.3188 3.33293 10.4095Z" fill="white"/>
<path d="M12.305 10.3373C12.2755 10.3909 12.2273 10.4741 12.1978 10.5244C12.1672 10.5747 12.1453 10.6173 12.1464 10.6184C12.1486 10.6206 12.2667 10.6873 12.4078 10.7672C12.5489 10.8459 12.6856 10.9236 12.7097 10.9378L12.7556 10.9641L12.8158 10.8623C12.9208 10.6863 12.9689 10.5911 12.9591 10.5823C12.9437 10.5681 12.3739 10.2422 12.3652 10.2422C12.3608 10.2422 12.3334 10.2848 12.305 10.3373Z" fill="white"/>
<path d="M5.16281 12.4177C5.06875 12.5806 4.99219 12.7163 4.99219 12.7217C4.99219 12.7305 5.15406 12.83 5.30062 12.9109L5.36297 12.9448L5.37937 12.9197C5.42531 12.8475 5.71406 12.3509 5.71406 12.3444C5.71406 12.34 5.68562 12.3203 5.65172 12.3017C5.61672 12.2831 5.53469 12.235 5.46906 12.1956C5.40344 12.1563 5.34547 12.1234 5.34109 12.1234C5.33672 12.1234 5.25687 12.2558 5.16281 12.4177Z" fill="white"/>
<path d="M10.6064 12.1497C10.5867 12.1628 10.5069 12.2109 10.4281 12.2558C10.3505 12.2995 10.2859 12.34 10.2859 12.3455C10.2859 12.3542 10.5452 12.7994 10.6108 12.9033L10.637 12.9448L10.6994 12.9109C10.8306 12.8388 11.0078 12.7305 11.0078 12.7217C11.0078 12.7031 10.6644 12.1234 10.6534 12.1234C10.6469 12.1245 10.625 12.1355 10.6064 12.1497Z" fill="white"/>
<path d="M7.78125 13.25V13.6H8H8.21875V13.25V12.9H8H7.78125V13.25Z" fill="white"/>
</g>
<defs>
<clipPath id="clip0_49_34">
<rect width="14" height="14" fill="white" transform="translate(1 1)"/>
</clipPath>
</defs>
</svg>
