<svg width="16" height="16" viewBox="0 0 16 16" fill="none" xmlns="http://www.w3.org/2000/svg">
<g clip-path="url(#clip0_49_32)">
<path d="M0.76877 2.00804C0.60752 2.04421 0.50877 2.09781 0.41377 2.19963C0.37502 2.24117 0.32377 2.31084 0.30127 2.35237C0.28002 2.39257 0.22752 2.46358 0.18627 2.51047C0.09627 2.60828 0.03377 2.73825 0.01377 2.86821C0.00377002 2.93252 2.00196e-05 4.27503 0.00252002 7.70767C0.00627002 12.3622 0.00627002 12.4587 0.03002 12.5244C0.10877 12.7414 0.25377 12.8942 0.45002 12.9678C0.51752 12.9933 0.68002 12.9933 7.88127 12.9933C14.1775 12.9933 15.2525 12.9906 15.3063 12.9745C15.4675 12.925 15.6163 12.8017 15.6988 12.6476C15.72 12.6074 15.7725 12.5364 15.8138 12.4895C15.9038 12.3917 15.9663 12.2618 15.9863 12.1318C15.9963 12.0675 16 10.725 15.9975 7.29233C15.9938 2.64044 15.9938 2.54129 15.97 2.47564C15.8925 2.26261 15.755 2.11522 15.5563 2.03216C15.495 2.0067 15.3713 2.0067 8.14377 2.00536C4.10127 2.00402 0.78252 2.00536 0.76877 2.00804ZM14.0125 2.95128C14.0113 2.962 8.12127 6.78721 8.10752 6.78721C8.09502 6.78587 2.22877 2.97406 2.21002 2.95396C2.20502 2.9486 4.85877 2.94458 8.10752 2.94458C11.355 2.94458 14.0125 2.94726 14.0125 2.95128ZM15.1725 9.49769L15.1688 11.5825L14.1063 10.5548C13.5225 9.9894 12.3638 8.86931 11.5338 8.06541C10.2538 6.82607 10.0275 6.60231 10.0463 6.59026C10.1525 6.52728 15.1363 3.27954 15.15 3.2648C15.1663 3.24738 15.1688 3.47649 15.1725 5.32948C15.1738 6.47503 15.1738 8.35079 15.1725 9.49769ZM3.45627 5.1084C4.88627 6.03825 6.05752 6.80061 6.06002 6.80329C6.06127 6.80463 5.95502 6.91181 5.82252 7.04044C5.32877 7.51876 0.86752 11.8384 0.84752 11.8585C0.82627 11.8772 0.82502 11.6749 0.82502 7.63398C0.82502 4.24019 0.82877 3.39342 0.84127 3.40414C0.84877 3.41084 2.02627 4.17856 3.45627 5.1084ZM10.1513 7.11413C10.3475 7.30438 11.14 8.07211 11.9125 8.81973C12.685 9.56736 13.7338 10.5829 14.2438 11.0747C15.085 11.8893 15.1688 11.975 15.1725 12.0152C15.1763 12.0568 15.1738 12.0594 15.1463 12.0514C15.1288 12.046 14.6013 11.5449 13.9738 10.9367C11.9513 8.97917 10.1113 7.19854 9.91002 7.0056C9.71752 6.81937 9.71502 6.81669 9.74002 6.79257C9.75377 6.78051 9.77127 6.76979 9.78002 6.76979C9.78752 6.76979 9.95502 6.92521 10.1513 7.11413ZM10.5038 7.96626C11.0688 8.51291 12.2313 9.63837 13.0875 10.4664C13.9438 11.2944 14.6625 11.9898 14.6838 12.0139L14.725 12.0554H7.93752C4.20377 12.0554 1.15127 12.0514 1.15377 12.046C1.15627 12.038 2.27752 10.9501 4.98127 8.33203C5.69627 7.64068 6.29877 7.05652 6.32002 7.03508L6.35877 6.99622L6.99502 7.41023C7.34502 7.638 7.65127 7.83496 7.67502 7.84836C7.74377 7.88721 7.98627 7.89257 8.07627 7.85773C8.11377 7.843 8.43877 7.638 8.80002 7.40219C9.16127 7.16638 9.46002 6.97211 9.46627 6.97211C9.47127 6.97077 9.93752 7.41827 10.5038 7.96626Z" fill="white"/>
</g>
<defs>
<clipPath id="clip0_49_32">
<rect width="16" height="11" fill="white" transform="translate(0 2)"/>
</clipPath>
</defs>
</svg>
