<svg width="16" height="16" viewBox="0 0 16 16" fill="none" xmlns="http://www.w3.org/2000/svg">
<g clip-path="url(#clip0_49_28)">
<path d="M7.66127 1.01203C6.05267 1.12578 4.60428 2.01281 3.75267 3.40734C3.5032 3.81531 3.3075 4.26812 3.18385 4.72422C2.85589 5.935 2.97202 7.21578 3.51181 8.32812C3.71718 8.75141 3.91181 9.05 4.23869 9.44375C4.27525 9.48859 5.04836 10.5112 5.95482 11.7155C6.94191 13.0269 7.62686 13.927 7.66234 13.9598C7.86234 14.1458 8.13761 14.1458 8.33761 13.9598C8.3731 13.927 9.05804 13.0269 10.0451 11.7155C10.9516 10.5112 11.7247 9.48859 11.7613 9.44375C12.0881 9.05 12.2828 8.75141 12.4881 8.32812C13.0968 7.07359 13.1645 5.59156 12.6752 4.28672C12.2957 3.27719 11.6355 2.43937 10.7419 1.83453C9.85482 1.23406 8.73761 0.936562 7.66127 1.01203ZM8.26234 3.47734C8.5032 3.50906 8.6903 3.56594 8.90858 3.67422C9.5032 3.96734 9.90965 4.50109 10.0505 5.17703C10.0774 5.30391 10.0795 5.33562 10.0806 5.57734C10.0806 5.86937 10.0699 5.95469 10.0054 6.18437C9.83224 6.79797 9.37525 7.31312 8.7903 7.55484C8.57417 7.64453 8.39783 7.68609 8.15374 7.70687C7.83761 7.73422 7.51611 7.68172 7.20966 7.55484C6.62471 7.31312 6.16772 6.79797 5.9946 6.18437C5.93009 5.95469 5.91933 5.86937 5.91933 5.57734C5.92041 5.33562 5.92256 5.30391 5.94944 5.17703C6.06987 4.60062 6.386 4.12156 6.85482 3.80766C7.04514 3.68078 7.32471 3.55937 7.53976 3.51125C7.76449 3.46094 8.04191 3.44781 8.26234 3.47734Z" fill="white"/>
</g>
<defs>
<clipPath id="clip0_49_28">
<rect width="10" height="14" fill="white" transform="translate(3 1)"/>
</clipPath>
</defs>
</svg>
