<svg width="16" height="16" viewBox="0 0 16 16" fill="none" xmlns="http://www.w3.org/2000/svg">
<g clip-path="url(#clip0_49_30)">
<path d="M11.2336 1.01094C11.1695 1.02844 11.0745 1.08422 11.0264 1.13453C10.9506 1.21328 8.76234 4.17297 8.72282 4.24953C8.61603 4.45844 8.63739 4.70234 8.77943 4.88172C8.79972 4.90797 9.04321 5.11469 9.31981 5.34219C9.84098 5.76984 9.8602 5.78844 9.91253 5.91203C9.96593 6.03672 9.98302 6.21719 9.95739 6.38234C9.92748 6.56938 9.83671 6.81875 9.70108 7.08672C9.51952 7.44438 9.48642 7.49141 8.50282 8.81047L7.56943 10.065L7.32913 10.3242C6.8571 10.835 6.5602 11.0898 6.30923 11.2003C6.21632 11.2419 6.20991 11.243 6.0903 11.243C5.95894 11.243 5.90661 11.2277 5.82758 11.1664C5.80943 11.1522 5.61292 10.9116 5.39292 10.6327C5.17292 10.3538 4.97642 10.112 4.95719 10.0945C4.78312 9.94359 4.51933 9.96438 4.35913 10.1394C4.30253 10.2017 2.11962 13.1461 2.07797 13.2161C1.95836 13.4195 1.98292 13.7061 2.13671 13.8811C2.16981 13.9194 3.03593 14.5822 3.2271 14.7156C3.52826 14.9256 4.06117 15.0328 4.59195 14.9891C6.08603 14.8644 7.77875 13.7356 9.44263 11.7516C10.721 10.228 11.7676 8.54906 12.3614 7.07031C12.7362 6.13734 12.9391 5.29078 12.9904 4.44531C13.0427 3.58672 12.8697 2.72266 12.544 2.21734C12.4906 2.13422 11.6672 1.15313 11.6085 1.10281C11.5433 1.04594 11.4483 1.00875 11.3575 1.00438C11.3126 1.00219 11.2571 1.00547 11.2336 1.01094Z" fill="white"/>
</g>
<defs>
<clipPath id="clip0_49_30">
<rect width="11" height="14" fill="white" transform="translate(2 1)"/>
</clipPath>
</defs>
</svg>
