<svg width="29" height="42" viewBox="0 0 29 42" fill="none" xmlns="http://www.w3.org/2000/svg">
<path d="M7.36457 6.0311C6.33518 6.27178 5.6332 7.12813 5.62765 8.14681C5.62488 8.81007 5.83852 9.31381 6.31854 9.77277C6.74305 10.1814 7.19255 10.3577 7.79464 10.3577C8.652 10.3577 9.35121 9.92669 9.72579 9.16828C9.91169 8.78768 9.96996 8.52181 9.95331 8.09084C9.94221 7.79419 9.92556 7.70464 9.8562 7.49754C9.6148 6.79511 9.10704 6.30256 8.39119 6.07588C8.14147 5.99752 7.60874 5.97513 7.36457 6.0311Z" fill="#0D6EFD"/>
<path d="M18.8932 7.11414C18.5713 7.16172 18.3272 7.29325 18.0913 7.54512C17.9387 7.70743 17.8 7.9705 17.7695 8.14961C17.7556 8.23636 17.7167 8.29233 17.5974 8.40707C17.1535 8.82965 16.9232 9.37537 16.9232 10.0078C16.9232 10.534 17.0647 10.9538 17.3838 11.3623C17.6696 11.7318 18.0747 11.9976 18.5463 12.1264C18.8516 12.2075 19.3177 12.2075 19.6285 12.1236C20.3776 11.9249 20.9353 11.3763 21.1712 10.6095C21.2266 10.4304 21.2377 10.3381 21.2377 10.0078C21.2377 9.67482 21.2294 9.58526 21.1739 9.40616C21.0463 9.00316 20.7938 8.58898 20.5469 8.38468C20.4525 8.30912 20.422 8.25875 20.397 8.1524C20.2417 7.47236 19.5757 7.01339 18.8932 7.11414Z" fill="#0D6EFD"/>
<path d="M5.86628 9.68042C5.37517 9.73359 4.45677 9.94628 3.97121 10.1198C3.14159 10.4108 2.54782 10.8194 2.35359 11.2364L2.27313 11.4071V16.2962V21.1825L1.82364 21.1937C1.38802 21.2021 1.36582 21.2049 1.23819 21.2804C1.15495 21.3308 1.08836 21.398 1.05229 21.4679C0.996797 21.5771 0.996797 21.6219 1.00235 28.1789L1.01067 34.7807L1.09113 34.8842C1.1938 35.0213 1.32698 35.0773 1.51288 35.0633C1.68768 35.0493 1.84029 34.943 1.90965 34.7918C1.95127 34.6995 1.95405 34.1818 1.95405 28.4727V22.2515H2.24538C2.53672 22.2515 2.53672 22.2515 2.65603 22.3495C3.01118 22.6321 3.54114 22.6293 3.90461 22.3411C4.04057 22.2319 4.14601 22.078 4.21537 21.8849C4.27087 21.7366 4.27087 21.6442 4.27087 17.6983V13.66H4.54833H4.82579V23.7544C4.82579 30.4625 4.83689 33.8935 4.85631 33.9747C4.93678 34.3273 5.23366 34.6967 5.56107 34.8478C6.29358 35.1808 7.10099 34.8002 7.33406 34.0083C7.37291 33.8711 7.37846 33.3254 7.37846 28.3048V22.7553H7.79465H8.21085V28.2908C8.21085 33.1071 8.2164 33.8459 8.25247 33.9859C8.41895 34.6351 9.02382 35.0465 9.67031 34.9542C10.1919 34.8814 10.6359 34.4504 10.7385 33.9215C10.7663 33.7816 10.7691 31.6966 10.7552 23.7012L10.7385 13.66H11.0216H11.3046V17.6983V21.7338L11.3767 21.9045C11.4655 22.1228 11.5765 22.2599 11.7485 22.3775C12.3645 22.7916 13.1691 22.439 13.2884 21.703C13.3051 21.6107 13.3162 21.4735 13.3162 21.398C13.3162 21.2776 13.4355 20.9782 14.2068 19.1731C14.6952 18.0257 15.2473 16.7272 15.4332 16.285L15.7717 15.479H16.2101H16.6513L16.6319 15.5686C16.6124 15.6637 15.2334 21.5127 15.0365 22.3355C14.8506 23.1079 13.7046 27.969 13.6852 28.0501L13.6713 28.1285H15.0198H16.3683V31.1145C16.3683 32.8021 16.3794 34.1818 16.396 34.2825C16.4487 34.6659 16.6929 34.9877 17.0564 35.1613C17.2256 35.2424 17.2673 35.2508 17.5059 35.2508C17.7445 35.2508 17.7861 35.2424 17.9554 35.1613C18.2023 35.0437 18.366 34.887 18.4936 34.6407L18.6019 34.4392L18.6157 31.2909L18.6296 28.1425H19.1984H19.7672L19.7811 31.2909L19.795 34.4392L19.8671 34.5932C20.2805 35.4747 21.4653 35.4803 21.9037 34.6071L21.9869 34.4392L22.0008 31.2909L22.0147 28.1425L23.3715 28.1341L24.7255 28.1285L24.7061 28.0501C24.695 28.0082 24.362 26.6005 23.9652 24.9241C23.5712 23.245 22.9081 20.4521 22.4974 18.7142C22.0868 16.9735 21.7511 15.535 21.7511 15.5154C21.7511 15.4874 21.8482 15.479 22.1922 15.479H22.6362L22.7055 15.7085C22.7416 15.8372 22.9636 16.5901 23.1939 17.382C24.3121 21.2105 24.4785 21.7702 24.5451 21.8877C24.645 22.0612 24.7976 22.204 24.9891 22.2963C25.1306 22.3663 25.1805 22.3775 25.3997 22.3775C25.6272 22.3775 25.6689 22.3691 25.8381 22.2851C25.963 22.2207 26.0656 22.1452 26.1544 22.0416L26.2876 21.8877H26.5318H26.7732V28.288V34.6883L26.8314 34.8086C26.9369 35.0297 27.2143 35.1305 27.4474 35.0297C27.5639 34.9822 27.6777 34.845 27.7165 34.7107C27.7554 34.5652 27.7554 21.412 27.7165 21.2664C27.6777 21.1321 27.5639 20.995 27.4474 20.9474C27.3836 20.9194 27.2115 20.9082 26.8287 20.9082C26.5401 20.9082 26.3015 20.9026 26.3015 20.8942C26.3015 20.8886 26.0434 20.0043 25.7299 18.9296C25.4164 17.855 25.0029 16.4417 24.8115 15.7869C23.9791 12.9267 23.9846 12.9491 23.6878 12.6357C23.3992 12.3334 22.9608 12.0648 22.4059 11.8577C22.0979 11.7402 21.5235 11.5862 21.1601 11.5219L20.9187 11.4799L20.7883 11.6198C20.2944 12.1543 19.5314 12.4342 18.8155 12.3474C18.3216 12.2859 17.861 12.0732 17.517 11.7486L17.3449 11.5862L17.1174 11.645C16.2823 11.8605 15.6496 12.1683 15.2029 12.5769C15.0975 12.6721 14.9477 12.798 14.87 12.8568C14.7923 12.9155 14.6868 13.0275 14.6369 13.1086C14.587 13.1898 14.2734 13.9006 13.9377 14.687L13.3301 16.1227L13.3162 13.7495L13.3023 11.3791L13.2274 11.2252C12.9194 10.5899 11.693 10.0051 10.1392 9.74479C9.60649 9.65523 9.65921 9.64684 9.43724 9.85673C9.10428 10.1758 8.78242 10.3605 8.36345 10.4724C8.05269 10.5564 7.53661 10.5564 7.22585 10.4724C6.80688 10.3605 6.4767 10.173 6.14375 9.85393C5.98004 9.70001 5.93565 9.67202 5.86628 9.68042Z" fill="#0D6EFD"/>
</svg>
