<svg width="29" height="42" viewBox="0 0 29 42" fill="none" xmlns="http://www.w3.org/2000/svg">
<path d="M13.6371 5.03199C12.075 5.20932 10.6014 5.92546 9.49528 7.0474C8.88268 7.66464 8.50832 8.19663 8.14416 8.95369C6.85771 11.6307 7.40224 14.8192 9.50889 16.9198C10.5843 17.9941 12.0035 18.6965 13.4908 18.8909C13.94 18.9489 14.8215 18.9591 15.2367 18.908C16.5367 18.7443 17.7857 18.2191 18.7863 17.4109C20.0353 16.3981 20.927 14.9317 21.2435 13.3664C21.6519 11.3408 21.1448 9.22991 19.8652 7.62372C18.7046 6.16758 17.0064 5.23319 15.1618 5.03199C14.7806 4.98766 14.0115 4.99107 13.6371 5.03199Z" fill="#0D6EFD"/>
<path d="M9.67221 19.0341C9.59733 19.0648 9.37612 19.1501 9.18553 19.2251L8.83159 19.3581L8.38235 19.8083C7.23884 20.9438 6.54456 22.2977 6.20083 24.0539C6.11575 24.5041 6.01365 25.3634 6.01365 25.6567V25.8238L6.27911 25.8818C6.83725 26.0045 7.32392 26.291 7.77656 26.765C8.65462 27.6823 9.1515 28.9884 9.26381 30.6935L9.28423 31.0004L8.96772 31.2698C8.79415 31.4165 8.6376 31.5495 8.62399 31.5631C8.60697 31.5768 8.61378 31.6211 8.6342 31.662C8.70226 31.7916 8.68525 32.0508 8.60016 32.1906C8.45042 32.4361 8.07605 32.5248 7.84803 32.3679C7.67446 32.252 7.57917 32.0883 7.57917 31.911C7.57917 31.7063 7.66425 31.5358 7.814 31.4404C7.98416 31.3312 8.1203 31.3074 8.28706 31.3653L8.43 31.4165L8.71928 31.2119C9.0494 30.98 9.03238 31.0414 8.97453 30.4173C8.80436 28.5724 7.97055 27.0515 6.80662 26.4649C6.3744 26.2501 5.73458 26.175 5.28194 26.291C3.92061 26.6422 2.86899 28.228 2.64777 30.2707C2.62735 30.4548 2.61034 30.7003 2.61034 30.8163L2.61374 31.0311L2.87239 31.2051C3.11062 31.3653 3.14125 31.379 3.24335 31.3483C3.48839 31.2835 3.78108 31.4438 3.88658 31.7029C4.02952 32.0644 3.75385 32.4464 3.34886 32.4464C2.95407 32.4464 2.6784 31.9723 2.8792 31.6416L2.94386 31.5324L2.64097 31.2733L2.33807 31.0107V30.8299C2.33807 29.6943 2.75328 28.2621 3.34205 27.3686C3.8015 26.6695 4.47535 26.1205 5.07433 25.9466L5.29215 25.8852L5.31257 25.5408C5.46231 23.273 6.18722 21.3769 7.42942 19.9992L7.63022 19.781L7.2967 19.9583C5.53718 20.8995 3.95805 22.284 2.73626 23.9618C1.32389 25.9022 0.381171 28.3166 0.0646629 30.8129L0 31.3039L0.221215 31.6279C2.3619 34.7619 6.08512 36.7329 10.9995 37.3365C12.3744 37.507 14.6138 37.5787 16.0194 37.4968C20.3348 37.2445 23.653 36.1634 26.2293 34.1651C26.9916 33.5751 28.0637 32.4361 28.6457 31.5938L28.8226 31.338L28.8022 31.0686C28.7444 30.3491 28.4857 29.176 28.1794 28.2416C27.7506 26.9219 27.2299 25.8579 26.4505 24.6882C25.3138 22.9865 23.8946 21.602 22.1453 20.4835C21.7233 20.2141 20.9542 19.7844 20.9542 19.8185C20.9542 19.8287 21.0631 19.9515 21.1958 20.0947C21.8935 20.8449 22.5401 21.8987 22.9451 22.9422C23.071 23.273 23.3093 24.071 23.3433 24.2756C23.3501 24.3267 23.4046 24.3506 23.5917 24.3881C23.8776 24.4427 24.3132 24.6507 24.5379 24.8383C24.8816 25.1247 25.1471 25.5476 25.2594 25.9841C25.324 26.2433 25.324 26.748 25.2594 27.0071C25.0722 27.7505 24.446 28.3848 23.7109 28.5758C23.425 28.6508 22.9417 28.6542 22.6592 28.5792C21.9479 28.3951 21.3626 27.846 21.138 27.1504C21.0086 26.748 21.0086 26.2398 21.138 25.8409C21.3388 25.2202 21.822 24.7155 22.4312 24.4836C22.6763 24.3915 22.6694 24.4359 22.4993 23.8357C22.0943 22.4239 21.349 21.1553 20.3075 20.0981C19.7664 19.5491 18.9666 18.9114 18.8986 18.9762C18.8918 18.9864 17.8776 20.7802 16.649 22.9661C15.4204 25.152 14.3824 26.9901 14.3449 27.0515L14.2769 27.164L12.303 23.4708C11.2173 21.4383 10.2338 19.5968 10.1214 19.3786C9.98871 19.1296 9.89002 18.9796 9.85939 18.9796C9.83216 18.983 9.74708 19.0069 9.67221 19.0341ZM18.8782 29.6841V30.4002H19.5929H20.3075V31.0141V31.6279H19.5929H18.8782V32.344V33.0602H18.2656H17.653V32.344V31.6279H16.9213H16.1895V31.0141V30.4002H16.9213H17.653V29.6841V28.968H18.2656H18.8782V29.6841Z" fill="#0D6EFD"/>
<path d="M22.792 25.1452C22.3087 25.302 21.9956 25.6021 21.8425 26.0625C21.5566 26.9048 22.1658 27.8256 23.0575 27.9006C23.4829 27.9347 23.864 27.7949 24.1737 27.488C24.9259 26.7309 24.606 25.4657 23.585 25.1486C23.3161 25.0667 23.0404 25.0633 22.792 25.1452Z" fill="#0D6EFD"/>
</svg>
